<svg xmlns="http://www.w3.org/2000/svg" width="880.848" height="685" viewBox="0 0 880.848 685"><defs><style>.a{fill:#fff;}.b{fill:#262626;}.c{fill:#39d8ae;}</style></defs><g transform="translate(-807.044 -452.53)"><g transform="translate(807.044 508.611)"><path class="a" d="M829.55,459.25v48.244c7.679-13.689,9.682-32.052,9.015-48.244Z" transform="translate(-453.847 -403.151)"/><path class="a" d="M920.383,469.944a75.152,75.152,0,0,0-20.2-2.5c-22.2,0-37.727,7.178-51.082,20.533a55.571,55.571,0,0,0-11.351,16.359c8.18,15.859,22.2,31.05,38.393,36.559a38.993,38.993,0,0,0,19.532,2.17c13.189-2,21.535-10.016,26.042-20.7C928.227,507.171,926.894,486.47,920.383,469.944Z" transform="translate(-325.16 -274.621)"/><path class="a" d="M1063.633,501c-56.256,69.946-121.195,73.619-219.853,49.747,20.7-23.037,39.9-39.731,57.927-51.583a67.081,67.081,0,0,0,4.34,13.521c10.516,25.374,35.557,45.907,65.27,37.727,20.7-5.675,29.214-21.534,29.716-37.727.5-14.022-5.342-28.379-14.858-36.392,17.862,1.67,35.224,7.011,52.918,14.023C1047.273,493.651,1055.286,497.157,1063.633,501Z" transform="translate(-230.528 -135.734)"/><path class="a" d="M1021.813,503.911A349.409,349.409,0,0,1,992.1,527.45c-38.395,27.044-67.608,32.051-98.824,23.371-21.034-5.676-42.737-17.528-69.112-33.054,21.868-20.366,42.737-32.552,65.106-37.727-5.174,15.024-3.672,33.887,4.007,47.242,5.508,9.849,14.356,16.526,26.209,16.526,15.692,0,26.376-8.847,31.383-22.2,4.174-11.185,4.675-25.541,1.169-40.565C972.9,485.381,995.77,493.228,1021.813,503.911Z" transform="translate(-538.435 -76.883)"/><path class="a" d="M885.892,482.53c-5.007,13.355-15.691,22.2-31.383,22.2-11.853,0-20.7-6.677-26.209-16.526V482.53Z" transform="translate(-473.464 -37.807)"/><path class="a" d="M1093.278,513.714c-134.515-75.12-204.4-47.176-284.758,24.456C899.365,608.05,1002.432,627.28,1093.278,513.714Z" transform="translate(-783.881 -247.06)"/><path class="b" d="M829.55,506.174v48.244c7.679-13.689,9.682-32.052,9.015-48.244Zm0-49.914v9.85h30.215A226.434,226.434,0,0,0,829.55,456.26Z" transform="translate(-453.847 -450.074)"/><path class="b" d="M1183.184,534.358l-19.2,12.687c-3.339,2.337-6.843,4.507-10.016,6.844-5.843,3.839-11.352,7.846-16.86,11.685-42.4,29.714-81.8,57.092-137.054,57.092-42.735,0-94.986-16.192-165.933-60.431L815.76,550.717l16.694-13.856c55.255-46.24,105.168-81.631,168.771-80.962V580.766c-41.735-4.674-59.93-41.4-47.41-85.471-27.376,9.682-54.253,27.712-84.135,51.583,130.711,75.956,181.125,40.732,249.4-7.178,2.672-1.837,5.509-3.673,8.181-5.676a428.542,428.542,0,0,0-37.894-22.035h24.371V489.619c12.854,6.845,26.21,15.024,40.232,24.372,3.339,2.338,6.845,4.674,10.351,7.178Z" transform="translate(-670.26 -455.889)"/><path class="a" d="M1076.571,496.979c-2.672,2-5.509,3.839-8.181,5.676-68.276,47.91-118.689,83.134-249.4,7.178,29.882-23.871,56.759-41.9,84.135-51.583-12.52,44.071,5.675,80.8,47.41,85.471a77.133,77.133,0,0,0,9.014.5c17.7,0,28.88-8.68,35.725-21.033,7.679-13.689,9.682-32.052,9.015-48.244a139.9,139.9,0,0,0-1.5-15.525,277.6,277.6,0,0,1,35.892,15.525A428.516,428.516,0,0,1,1076.571,496.979Z" transform="translate(-619.57 -418.845)"/><path class="b" d="M920.383,469.944a75.152,75.152,0,0,0-20.2-2.5c-22.2,0-37.727,7.178-51.082,20.533a55.571,55.571,0,0,0-11.351,16.359c8.18,15.859,22.2,31.05,38.393,36.559a38.993,38.993,0,0,0,19.532,2.17c13.189-2,21.535-10.016,26.042-20.7C928.227,507.171,926.894,486.47,920.383,469.944Z" transform="translate(-325.16 -274.621)"/><path class="b" d="M872.376,512.642a196.923,196.923,0,0,1-37.226-9.515h7.178V472.41a170.2,170.2,0,0,0,29.213,8.013v1.836c0,4.842,0,9.682.168,14.19C871.709,501.957,871.875,507.466,872.376,512.642Z" transform="translate(-365.963 -196.625)"/><path class="b" d="M864.072,495.3c4.34,2.337,8.68,4.674,13.022,6.677H831.52v-18.2c4.674-4.841,9.181-9.515,13.689-13.856h45.907C882.269,477.442,873.421,485.956,864.072,495.3Z" transform="translate(-422.93 -235.545)"/><path class="b" d="M1074.975,502.45h-32.552V555.7a225.035,225.035,0,0,1-30.884,31.05c0-7.011-.166-13.855-.667-20.532a98.961,98.961,0,0,0-3.005-18.864,190.381,190.381,0,0,0,23.371-29.547c-27.044-11.018-50.248-17.529-71.448-20.2a35.6,35.6,0,0,1,2.337,5.844,75.151,75.151,0,0,0-20.2-2.5c-22.2,0-37.727,7.178-51.082,20.533a55.581,55.581,0,0,0-11.35,16.359,65.2,65.2,0,0,1-6.844-22.7,181.245,181.245,0,0,0-17.862,11.685V502.45h-19.7c61.1-44.738,123.2-51.583,224.862-6.677Z" transform="translate(-366.904 -308.129)"/><path class="b" d="M889.265,486.967v2.672c0,7.011-.166,12.687-.5,17.361a143.143,143.143,0,0,1-18.031,6.344,156.065,156.065,0,0,1-29.046,5.342,107.667,107.667,0,0,1-1.335-15.692c-.166-4.507-.334-9.681-.334-15.858a113.155,113.155,0,0,0,22.2-4.173,129.775,129.775,0,0,0,26.709-10.851C889.265,476.284,889.265,481.292,889.265,486.967Z" transform="translate(-289.535 -201.333)"/><path class="b" d="M942.5,542.343c-.5,16.193-9.015,32.052-29.716,37.727-29.713,8.18-54.754-12.353-65.27-37.727h44.906V475.068a27.427,27.427,0,0,1,5.175-.668h10.015l7.178,15.024,25.208,52.919Z" transform="translate(-171.991 -165.395)"/><path class="b" d="M1164.107,513.439,1153.423,528.8c-28.88,41.4-60.6,65.939-94.318,78.96-23.037,9.015-46.909,12.687-71.615,12.687h-1.5c-39.4-.167-80.3-9.682-122.029-20.867l-23.538-6.344,15.525-18.864c37.56-45.907,71.448-73.951,102.832-89.477v52.585a67.05,67.05,0,0,1-4.34-13.521c-18.029,11.852-37.227,28.545-57.927,51.583,98.658,23.872,163.6,20.2,219.853-49.747-8.347-3.839-16.361-7.345-24.54-10.684l-10.682-20.533L1070.79,474.71c25.877,7.011,50.916,18.864,76.456,30.883Z" transform="translate(-283.259 -160.53)"/><path class="b" d="M828.3,482.53v5.676c5.508,9.849,14.356,16.526,26.209,16.526,15.692,0,26.376-8.847,31.383-22.2Z" transform="translate(-473.464 -37.807)"/><path class="b" d="M1125.483,526.743,1108.456,543.1a467.271,467.271,0,0,1-44.07,37.561,54.608,54.608,0,0,0-7.179-8.347c-1.168-1.168-2.337-2.169-3.5-3.171a54.279,54.279,0,0,0-14.524-9.014,349.576,349.576,0,0,0,29.716-23.539c-26.043-10.684-48.913-18.53-69.78-22.869,3.506,15.024,3.005,29.379-1.169,40.565H940.353v5.675c-7.679-13.355-9.181-32.218-4.007-47.242-22.369,5.174-43.237,17.361-65.106,37.727,26.376,15.525,48.078,27.378,69.112,33.054v32.051c-31.217-7.011-63.268-25.04-102.5-48.245L821.16,557.291l13.19-14.19c80.462-86.972,151.075-77.625,269.6-25.874Z" transform="translate(-585.516 -109.563)"/><path class="b" d="M1128.728,538.372l11.6-14.507-16.21-9.048c-140.509-78.459-217.466-49.714-302.9,26.442L807.044,553.9l15.04,11.569c52.318,40.247,102.7,60.313,150.108,60.313C1029.335,625.779,1082.153,596.583,1128.728,538.372ZM856.942,551.977c17.011-14.123,33.5-25.775,50.329-34.473,8.647,23.2,40.1,53.4,66.792,53.4,28.829,0,52.384-20.9,56.072-62.985,18.865,5.492,39.2,13.688,61.716,25.257C1024.661,606.983,945.767,613.31,856.942,551.977Z" transform="translate(-807.044 -261.886)"/></g><path class="a" d="M1056.663,487.44a190.356,190.356,0,0,1-23.371,29.547c-11.686,12.02-25.542,23.2-41.567,31.551a129.794,129.794,0,0,1-26.709,10.851,113.134,113.134,0,0,1-22.2,4.174c-14.357,1.836-29.381,1-44.906-2a170.205,170.205,0,0,1-29.213-8.013,225.3,225.3,0,0,1-22.2-9.349c-4.342-2-8.682-4.34-13.022-6.677,9.348-9.348,18.2-17.862,27.044-25.374,6.677-5.842,13.188-11.018,19.7-15.692a181.144,181.144,0,0,1,17.862-11.685,65.2,65.2,0,0,0,6.844,22.7c8.179,15.859,22.2,31.05,38.393,36.559a38.99,38.99,0,0,0,19.531,2.17c13.19-2,21.535-10.016,26.043-20.7,6.509-15.191,5.176-35.891-1.335-52.417a35.64,35.64,0,0,0-2.337-5.844C1006.415,469.911,1029.619,476.422,1056.663,487.44Z" transform="translate(414.715 230.851)"/><path class="b" d="M872.213,494.946c-14.356,7.011-28.044,11.352-41.232,13.188v-23.2h19.865a44.224,44.224,0,0,1,5.007.334C863.866,486.266,868.707,489.771,872.213,494.946Z" transform="translate(375.639 508.469)"/><g transform="translate(1138.009 452.53)"><path class="c" d="M836.02,452.53V566.713c3.339,2.338,6.845,4.674,10.35,7.178l18.864,13.188-19.2,12.687c-3.339,2.337-6.843,4.507-10.016,6.845v28.545h44.906V452.53Z" transform="translate(-683.274 -452.53)"/><path class="c" d="M917.05,557.635v37.56h27.045v2.5c0,6.845-1.836,14.356-7.012,19.531-4.005,4.341-10.517,7.179-20.033,7.179-8.179,0-14.356-3.339-17.694-7.68-4.007-5.509-6.677-11.852-6.677-45.239s2.67-39.4,6.677-44.905c3.338-4.34,9.515-7.846,17.694-7.846,15.359,0,22.7,6.678,26.21,20.533h45.072c-3.339-23.538-16.359-47.409-44.571-56.591-23.037,9.015-46.909,12.687-71.615,12.687h-1.5a47.463,47.463,0,0,0-4.34,3.84c-19.2,19.2-18.53,44.905-18.53,72.282,0,27.545-.668,53.086,18.53,72.283,13.354,13.356,29.547,20.533,50.747,20.533,20.033,0,37.561-4.34,53.086-20.533,13.856-14.022,18.531-31.217,18.531-60.764V557.635Z" transform="translate(-498.879 20.628)"/><path class="c" d="M871.609,524.646h67.774V564.71H915.012a277.637,277.637,0,0,0-35.892-15.525,139.99,139.99,0,0,1,1.5,15.525h-9.015v48.245c-6.844,12.353-18.029,21.033-35.725,21.033a77.15,77.15,0,0,1-9.014-.5V452.53H950.9v40.064H871.609Z" transform="translate(-826.871 -452.53)"/><path class="c" d="M933.434,635.174H900.1L839.817,452.531h46.423l30.783,102.1,30.265-102.1h46.675Z" transform="translate(-623.687 -452.514)"/><path class="c" d="M850.157,635.174V452.531H974.291v40.014H895.03v30.532h67.726v40.014H895.03v32.068h79.261v40.014Z" transform="translate(-461.416 -452.514)"/><path class="c" d="M873.735,539.646h45.574a225.39,225.39,0,0,0,22.2,9.349V579.71H873.735v70.446h-44.9V467.53h124.2V491.9c-6.511,4.674-13.022,9.85-19.7,15.692h-59.6Z" transform="translate(-796.11 -217.128)"/><path class="c" d="M920.383,469.944a75.152,75.152,0,0,0-20.2-2.5c-22.2,0-37.727,7.178-51.082,20.533a55.571,55.571,0,0,0-11.351,16.359c8.18,15.859,22.2,31.05,38.393,36.559.836-16.861,3.005-21.368,6.178-25.541,3.339-4.34,9.682-7.846,17.862-7.846s14.691,3.506,18.029,7.846a19.624,19.624,0,0,1,3.506,7.011C928.227,507.171,926.894,486.47,920.383,469.944Z" transform="translate(-656.125 -218.54)"/><path class="c" d="M976.387,509.617v7.011c0,27.545.668,53.086-18.53,72.283-13.354,13.356-28.713,20.533-51.082,20.533-22.2,0-37.727-7.178-51.082-20.533-11.853-11.852-16.026-26.209-17.528-41.9-.5-5.175-.667-10.685-.667-16.193-.168-4.508-.168-9.348-.168-14.19v-1.836c15.525,3,30.549,3.839,44.906,2,0,6.177.168,11.351.333,15.858a107.672,107.672,0,0,0,1.335,15.692c1,7.178,2.838,10.183,5.009,13.021a22.5,22.5,0,0,0,17.862,8.18c8.179,0,14.69-3.839,18.029-8.18,3.005-4.173,5.342-8.513,6.178-24.706.333-4.674.5-10.35.5-17.361v-2.672c0-5.675,0-10.684-.333-14.857,16.026-8.347,29.882-19.531,41.568-31.55a98.927,98.927,0,0,1,3,18.864C976.221,495.761,976.387,502.605,976.387,509.617Z" transform="translate(-662.716 -174.912)"/><path class="c" d="M969.874,607.254l-10.352-19.865-7.01-13.354c14.356-7.178,29.715-22.87,29.715-47.744,0-30.048-21.7-58.76-62.267-58.76H847.51V650.157h44.906V582.214h15.19l7.178,15.024,25.208,52.919h2.5c.5-14.022-5.342-28.379-14.858-36.391,17.862,1.669,35.224,7.011,52.918,14.022Zm-77.458-62.433v-37.06h25.373c12.354,0,19.531,9.015,19.531,18.53s-7.178,18.53-19.531,18.53Z" transform="translate(-502.956 -217.128)"/><path class="c" d="M828.3,482.53v5.676c5.508,9.849,14.356,16.526,26.209,16.526,15.692,0,26.376-8.847,31.383-22.2Z" transform="translate(-804.429 18.275)"/><path class="c" d="M952.333,503.413a54.618,54.618,0,0,0-7.179-8.347c-1.167-1.167-2.337-2.169-3.5-3.171a54.3,54.3,0,0,0-14.525-9.014c-38.4,27.044-67.609,32.051-98.824,23.371V659.664h67.607c19.032,0,36.726-5.342,49.246-17.862,21.369-21.367,19.031-44.738,19.031-73.451C964.184,543.31,966.021,522.443,952.333,503.413Zm-37.894,106c-4.174,6.177-10.35,10.184-21.535,10.184H873.038V517.1H892.9a44.212,44.212,0,0,1,5.007.334c8.014,1,12.855,4.507,16.361,9.682a.163.163,0,0,1,.167.167c3.5,5.175,4.841,10.35,4.841,41.066C919.28,599.4,917.943,604.242,914.438,609.416Z" transform="translate(-804.429 23.767)"/><path class="c" d="M958.506,647.638c-13.337,13.338-28.729,20.516-51.047,20.516s-37.71-7.178-51.049-20.516c-19.231-19.247-18.463-44.888-18.463-72.333s-.768-53.1,18.463-72.333c13.339-13.338,28.729-20.533,51.049-20.533s37.71,7.195,51.047,20.533C977.74,522.2,976.97,547.861,976.97,575.3S977.74,628.391,958.506,647.638ZM925.4,530.416c-3.322-4.373-9.732-7.946-17.945-7.946s-14.624,3.573-17.946,7.946c-4.106,5.376-6.677,11.535-6.677,44.889,0,33.337,2.571,39.247,6.677,44.622,3.322,4.374,9.732,8.213,17.946,8.213s14.623-3.838,17.945-8.213c4.106-5.375,6.677-11.285,6.677-44.622C932.081,541.951,929.51,535.792,925.4,530.416Z" transform="translate(-653.1 16.846)"/></g></g></svg>